<svg width="20" height="20" viewBox="0 0 20 20" fill="none" xmlns="http://www.w3.org/2000/svg">
<path fill-rule="evenodd" clip-rule="evenodd" d="M3.1237 1.66675C1.85805 1.66675 0.832031 2.69276 0.832031 3.95841V13.956C0.832031 15.2217 1.85805 16.2477 3.1237 16.2477H4.16455V17.3195C4.16455 18.5114 5.51672 19.1999 6.48063 18.4989L9.57611 16.2477H16.4556C17.7213 16.2477 18.7473 15.2217 18.7473 13.956V3.95841C18.7473 2.69276 17.7213 1.66675 16.4556 1.66675H3.1237ZM9.37337 7.49764C9.71853 7.49736 9.99811 7.21732 9.99786 6.87215C9.99761 6.52697 9.71753 6.24737 9.37236 6.24764L6.4598 6.24993C6.11461 6.2502 5.83501 6.53024 5.83529 6.87542C5.83556 7.2206 6.1156 7.5002 6.46078 7.49993L9.37337 7.49764ZM6.45621 10.4143C6.11104 10.4143 5.83121 10.6942 5.83121 11.0393C5.83121 11.3845 6.11104 11.6643 6.45621 11.6643H12.7062C13.0514 11.6643 13.3312 11.3845 13.3312 11.0393C13.3312 10.6942 13.0514 10.4143 12.7062 10.4143H6.45621Z" fill="#D3D3D3"/>
</svg>
